STARTFONT 2.1
FONT -DEC-Terminal-Bold-R-Normal--28-200-100-100-C-160-DEC-DECtech
SIZE 20 100 100
FONTBOUNDINGBOX 16 30 0 -6

STARTPROPERTIES 25
CHARSET_REGISTRY "DEC"
CHARSET_ENCODING "DECtech"
CAP_HEIGHT 18
X_HEIGHT 13
AVERAGE_WIDTH 160
FONTNAME_REGISTRY ""
FAMILY_NAME "Terminal"
FOUNDRY "DEC"
WEIGHT_NAME "Bold"
SETWIDTH_NAME "Normal"
SLANT "R"
ADD_STYLE_NAME ""
PIXEL_SIZE 28
POINT_SIZE 200
RESOLUTION_X 100
RESOLUTION_Y 100
SPACING "C"
CHARSET_COLLECTIONS "DEC-DECtech"
FULL_NAME "Terminal Bold Normal"
COPYRIGHT "Copyright (c) 1990 Digital Equipment Corp. All rights reserved."
WEIGHT 10
QUAD_WIDTH 16
DEFAULT_CHAR 159
FONT_DESCENT 6
FONT_ASCENT 24
ENDPROPERTIES

CHARS 181

STARTCHAR space
ENCODING 32
SWIDTH 570 0
DWIDTH 16 0
BBX 1 1 0 0
BITMAP
00
ENDCHAR

STARTCHAR exclam
ENCODING 33
SWIDTH 570 0
DWIDTH 16 0
BBX 3 18 6 0
BITMAP
E0
E0
E0
E0
E0
E0
E0
E0
E0
E0
E0
E0
00
00
40
E0
E0
40
ENDCHAR

STARTCHAR quotedbl
ENCODING 34
SWIDTH 570 0
DWIDTH 16 0
BBX 9 7 4 13
BITMAP
E380
E380
E380
E380
E380
E380
E380
ENDCHAR

STARTCHAR numbersign
ENCODING 35
SWIDTH 570 0
DWIDTH 16 0
BBX 15 18 1 0
BITMAP
1C70
1C70
1C70
1C70
FFFE
FFFE
FFFE
1C70
1C70
1C70
1C70
FFFE
FFFE
FFFE
1C70
1C70
1C70
1C70
ENDCHAR

STARTCHAR dollar
ENCODING 36
SWIDTH 570 0
DWIDTH 16 0
BBX 13 21 2 -2
BITMAP
0700
0700
0700
0F80
3FE0
78F0
F070
F800
FF80
FFE0
7FF0
1FF8
00F8
E078
F0F8
7FF0
1FC0
0700
0700
0700
0700
ENDCHAR

STARTCHAR percent
ENCODING 37
SWIDTH 570 0
DWIDTH 16 0
BBX 16 20 0 -1
BITMAP
0007
7E0F
E71E
E71C
E738
E738
7E70
00E0
00E0
01C0
0380
0380
0700
0F7E
0EE7
1CE7
38E7
38E7
707E
7000
ENDCHAR

STARTCHAR ampersand
ENCODING 38
SWIDTH 570 0
DWIDTH 16 0
BBX 15 18 1 0
BITMAP
0F00
3FC0
3FC0
79E0
70E0
78E0
39C0
3FC0
1F9E
3F1C
7F9C
7BF8
F1F8
F0F0
F9F0
FFF8
7FBC
3E1E
ENDCHAR

STARTCHAR quoteright
ENCODING 39
SWIDTH 570 0
DWIDTH 16 0
BBX 5 6 5 14
BITMAP
38
38
38
38
70
E0
ENDCHAR

STARTCHAR parenleft
ENCODING 40
SWIDTH 570 0
DWIDTH 16 0
BBX 8 20 6 -1
BITMAP
07
1E
3C
38
70
70
E0
E0
E0
E0
E0
E0
E0
E0
70
70
38
3C
1E
07
ENDCHAR

STARTCHAR parenright
ENCODING 41
SWIDTH 570 0
DWIDTH 16 0
BBX 8 20 3 -1
BITMAP
E0
78
3C
1C
0E
0E
07
07
07
07
07
07
07
07
0E
0E
1C
3C
78
E0
ENDCHAR

STARTCHAR asterisk
ENCODING 42
SWIDTH 570 0
DWIDTH 16 0
BBX 13 12 2 6
BITMAP
38E0
38E0
1DC0
0D80
6FB0
FFF8
7FF0
0F80
0D80
18C0
38E0
38E0
ENDCHAR

STARTCHAR plus
ENCODING 43
SWIDTH 570 0
DWIDTH 16 0
BBX 13 15 2 3
BITMAP
0700
0700
0700
0700
0700
0700
FFF8
FFF8
FFF8
0700
0700
0700
0700
0700
0700
ENDCHAR

STARTCHAR comma
ENCODING 44
SWIDTH 570 0
DWIDTH 16 0
BBX 6 6 4 -3
BITMAP
1C
1C
1C
38
70
C0
ENDCHAR

STARTCHAR minus
ENCODING 45
SWIDTH 570 0
DWIDTH 16 0
BBX 13 3 2 9
BITMAP
FFF8
FFF8
FFF8
ENDCHAR

STARTCHAR period
ENCODING 46
SWIDTH 570 0
DWIDTH 16 0
BBX 4 4 6 0
BITMAP
60
F0
F0
60
ENDCHAR

STARTCHAR slash
ENCODING 47
SWIDTH 570 0
DWIDTH 16 0
BBX 12 20 2 -1
BITMAP
0070
0070
00E0
00E0
01C0
01C0
0380
0380
0700
0700
0600
0E00
0E00
1C00
1C00
3800
3000
7000
E000
E000
ENDCHAR

STARTCHAR zero
ENCODING 48
SWIDTH 570 0
DWIDTH 16 0
BBX 12 18 2 0
BITMAP
1F80
3FC0
7FE0
79E0
F0F0
F0F0
F0F0
F0F0
F0F0
F0F0
F0F0
F0F0
F0F0
F0F0
79E0
7FE0
3FC0
1F80
ENDCHAR

STARTCHAR one
ENCODING 49
SWIDTH 570 0
DWIDTH 16 0
BBX 11 18 2 0
BITMAP
0F00
1F00
3F00
7F00
EF00
CF00
0F00
0F00
0F00
0F00
0F00
0F00
0F00
0F00
0F00
7FE0
7FE0
7FE0
ENDCHAR

STARTCHAR two
ENCODING 50
SWIDTH 570 0
DWIDTH 16 0
BBX 12 18 2 0
BITMAP
3F80
7FE0
FFE0
F1F0
E0F0
60F0
01E0
03E0
07C0
0F80
1F00
3E00
7C00
7810
F030
FFF0
FFF0
FFF0
ENDCHAR

STARTCHAR three
ENCODING 51
SWIDTH 570 0
DWIDTH 16 0
BBX 13 18 1 0
BITMAP
1FC0
7FF0
7FF8
70F8
6078
0070
00F0
1FE0
1FC0
1FF0
00F0
0078
6078
E078
F0F8
FFF0
7FE0
1F80
ENDCHAR

STARTCHAR four
ENCODING 52
SWIDTH 570 0
DWIDTH 16 0
BBX 14 18 1 0
BITMAP
0070
00F0
01F0
03F0
07F0
0EF0
1CF0
18F0
38F0
70F0
E0F0
FFFC
FFFC
FFFC
00F0
00F0
00F0
00F0
ENDCHAR

STARTCHAR five
ENCODING 53
SWIDTH 570 0
DWIDTH 16 0
BBX 12 18 2 0
BITMAP
FFE0
FFE0
FFE0
F000
F000
F000
F7C0
FFE0
FFE0
F9F0
00F0
00F0
00F0
C0F0
E1F0
FFE0
FFE0
3F80
ENDCHAR

STARTCHAR six
ENCODING 54
SWIDTH 570 0
DWIDTH 16 0
BBX 13 18 2 0
BITMAP
0FC0
3FF0
7FF0
7870
F030
F000
F780
FFE0
FFF0
F8F0
F078
F078
F078
F078
78F0
7FF0
3FE0
0F80
ENDCHAR

STARTCHAR seven
ENCODING 55
SWIDTH 570 0
DWIDTH 16 0
BBX 12 18 2 0
BITMAP
FFF0
FFF0
FFF0
0070
00F0
01F0
03E0
07C0
0F80
1F00
1E00
3C00
3C00
7800
7800
7800
7800
7800
ENDCHAR

STARTCHAR eight
ENCODING 56
SWIDTH 570 0
DWIDTH 16 0
BBX 13 18 1 0
BITMAP
0F80
3FE0
78F0
78F0
78F0
38E0
3FE0
0F80
3FE0
7FF0
F8F8
F078
F078
F078
78F0
7FF0
3FE0
0F80
ENDCHAR

STARTCHAR nine
ENCODING 57
SWIDTH 570 0
DWIDTH 16 0
BBX 13 18 1 0
BITMAP
0FC0
3FF0
7FF0
78F8
F078
F078
F078
F078
78F8
7FF8
3FF8
0F78
0078
6078
70F0
7FF0
3FE0
1F80
ENDCHAR

STARTCHAR colon
ENCODING 58
SWIDTH 570 0
DWIDTH 16 0
BBX 4 12 6 0
BITMAP
60
F0
F0
60
00
00
00
00
60
F0
F0
60
ENDCHAR

STARTCHAR semicolon
ENCODING 59
SWIDTH 570 0
DWIDTH 16 0
BBX 7 15 3 -3
BITMAP
0C
1E
1E
0C
00
00
00
00
00
1C
1C
1C
38
70
C0
ENDCHAR

STARTCHAR less
ENCODING 60
SWIDTH 570 0
DWIDTH 16 0
BBX 11 16 3 1
BITMAP
01E0
03C0
0780
0F00
1E00
3C00
7800
F000
F000
7800
3C00
1E00
0F00
0780
03C0
01E0
ENDCHAR

STARTCHAR equal
ENCODING 61
SWIDTH 570 0
DWIDTH 16 0
BBX 14 9 1 5
BITMAP
FFFC
FFFC
FFFC
0000
0000
0000
FFFC
FFFC
FFFC
ENDCHAR

STARTCHAR greater
ENCODING 62
SWIDTH 570 0
DWIDTH 16 0
BBX 11 16 3 1
BITMAP
F000
7800
3C00
1E00
0F00
0780
03C0
01E0
01E0
03C0
0780
0F00
1E00
3C00
7800
F000
ENDCHAR

STARTCHAR question
ENCODING 63
SWIDTH 570 0
DWIDTH 16 0
BBX 11 18 3 0
BITMAP
3F00
7FC0
E3E0
E1E0
C1E0
01E0
03C0
0780
0F00
0E00
1C00
1C00
1C00
0000
0000
0C00
1E00
0C00
ENDCHAR

STARTCHAR at
ENCODING 64
SWIDTH 570 0
DWIDTH 16 0
BBX 13 18 2 0
BITMAP
1FE0
7FF0
7070
E038
E038
E1F8
E7F8
EE38
EE38
EE38
E7F8
E3B8
E000
E000
7018
7FF8
3FF0
0FE0
ENDCHAR

STARTCHAR A
ENCODING 65
SWIDTH 570 0
DWIDTH 16 0
BBX 16 18 0 0
BITMAP
0180
03C0
03C0
07E0
07E0
0E70
0E70
1E78
1C38
3C3C
3FFC
3FFC
7FFE
781E
781E
F00F
F00F
F00F
ENDCHAR

STARTCHAR B
ENCODING 66
SWIDTH 570 0
DWIDTH 16 0
BBX 14 18 1 0
BITMAP
FFC0
FFF0
7FF8
7878
7878
7878
78F0
7FE0
7FC0
7FF0
7878
783C
783C
783C
787C
7FF8
FFF0
FFC0
ENDCHAR

STARTCHAR C
ENCODING 67
SWIDTH 570 0
DWIDTH 16 0
BBX 13 18 2 0
BITMAP
0FC0
3FF0
7FF0
7C78
F838
F000
F000
F000
F000
F000
F000
F000
F000
F838
7C78
7FF0
3FE0
0F80
ENDCHAR

STARTCHAR D
ENCODING 68
SWIDTH 570 0
DWIDTH 16 0
BBX 14 18 1 0
BITMAP
FFC0
FFF0
7FF8
7878
783C
783C
783C
783C
783C
783C
783C
783C
783C
783C
7878
7FF8
FFF0
FFC0
ENDCHAR

STARTCHAR E
ENCODING 69
SWIDTH 570 0
DWIDTH 16 0
BBX 13 18 2 0
BITMAP
FFF8
FFF8
7FF8
7818
7808
7800
7800
7FE0
7FE0
7FE0
7800
7800
7800
7808
7818
7FF8
FFF8
FFF8
ENDCHAR

STARTCHAR F
ENCODING 70
SWIDTH 570 0
DWIDTH 16 0
BBX 12 18 3 0
BITMAP
FFF0
FFF0
7FF0
7830
7810
7800
7800
7800
7FC0
7FC0
7FC0
7800
7800
7800
7800
7800
FE00
FE00
ENDCHAR

STARTCHAR G
ENCODING 71
SWIDTH 570 0
DWIDTH 16 0
BBX 13 18 2 0
BITMAP
0FC0
3FF0
7FF0
7878
F078
F000
F000
F000
F000
F1F8
F1F8
F1F8
F038
F838
7C78
7FF8
3FF8
0FB8
ENDCHAR

STARTCHAR H
ENCODING 72
SWIDTH 570 0
DWIDTH 16 0
BBX 15 18 1 0
BITMAP
FC7E
FC7E
783C
783C
783C
783C
783C
7FFC
7FFC
7FFC
783C
783C
783C
783C
783C
783C
FC7E
FC7E
ENDCHAR

STARTCHAR I
ENCODING 73
SWIDTH 570 0
DWIDTH 16 0
BBX 10 18 3 0
BITMAP
FFC0
FFC0
1E00
1E00
1E00
1E00
1E00
1E00
1E00
1E00
1E00
1E00
1E00
1E00
1E00
1E00
FFC0
FFC0
ENDCHAR

STARTCHAR J
ENCODING 74
SWIDTH 570 0
DWIDTH 16 0
BBX 12 18 2 0
BITMAP
1FF0
1FF0
00F0
00F0
00F0
00F0
00F0
00F0
00F0
00F0
00F0
00F0
E0F0
E0F0
F1E0
7FE0
7FC0
1F00
ENDCHAR

STARTCHAR K
ENCODING 75
SWIDTH 570 0
DWIDTH 16 0
BBX 15 18 1 0
BITMAP
FC3C
F87C
78F0
79E0
7BC0
7B80
7F00
7F00
7F00
7F80
7F80
7BC0
79E0
79E0
78F0
7878
FCFE
FCFE
ENDCHAR

STARTCHAR L
ENCODING 76
SWIDTH 570 0
DWIDTH 16 0
BBX 12 18 3 0
BITMAP
FC00
FC00
7800
7800
7800
7800
7800
7800
7800
7800
7800
7800
7800
7810
7830
7FF0
FFF0
FFF0
ENDCHAR

STARTCHAR M
ENCODING 77
SWIDTH 570 0
DWIDTH 16 0
BBX 16 18 0 0
BITMAP
F81F
F81F
7C3E
7C3E
7C3E
7E7E
7E7E
7E7E
7FFE
7BDE
7BDE
7BDE
799E
799E
781E
781E
F81F
F81F
ENDCHAR

STARTCHAR N
ENCODING 78
SWIDTH 570 0
DWIDTH 16 0
BBX 15 18 1 0
BITMAP
F87E
F87E
7C3C
7C3C
7E3C
7E3C
7F3C
7F3C
7BBC
7BBC
79FC
79FC
78FC
78FC
787C
787C
FC3C
FC3C
ENDCHAR

STARTCHAR O
ENCODING 79
SWIDTH 570 0
DWIDTH 16 0
BBX 13 18 2 0
BITMAP
0F80
3FE0
7FF0
78F0
F078
F078
F078
F078
F078
F078
F078
F078
F078
F078
78F0
7FF0
3FE0
0F80
ENDCHAR

STARTCHAR P
ENCODING 80
SWIDTH 570 0
DWIDTH 16 0
BBX 14 18 2 0
BITMAP
FFE0
FFF8
7FF8
787C
783C
783C
783C
783C
787C
7FF8
7FF0
7FC0
7800
7800
7800
7800
FC00
FC00
ENDCHAR

STARTCHAR Q
ENCODING 81
SWIDTH 570 0
DWIDTH 16 0
BBX 14 20 2 -2
BITMAP
0F80
3FE0
7FF0
78F0
F078
F078
F078
F078
F078
F078
F078
F078
F078
F078
79F0
7EF0
3FE0
0FF0
0038
001C
ENDCHAR

STARTCHAR R
ENCODING 82
SWIDTH 570 0
DWIDTH 16 0
BBX 15 18 1 0
BITMAP
FFC0
FFF0
7FF8
78F8
7878
7878
7878
78F0
7FE0
7FC0
7FC0
79E0
78F0
78F0
7878
7878
FC3C
FC3E
ENDCHAR

STARTCHAR S
ENCODING 83
SWIDTH 570 0
DWIDTH 16 0
BBX 13 18 2 0
BITMAP
1FC0
7FF0
7FF0
F878
F038
F800
FE00
7F80
3FE0
0FF0
03F8
00F8
0078
E078
F0F8
FFF0
7FE0
1F80
ENDCHAR

STARTCHAR T
ENCODING 84
SWIDTH 570 0
DWIDTH 16 0
BBX 14 18 2 0
BITMAP
FFFC
FFFC
FFFC
C78C
8784
0780
0780
0780
0780
0780
0780
0780
0780
0780
0780
0780
1FE0
1FE0
ENDCHAR

STARTCHAR U
ENCODING 85
SWIDTH 570 0
DWIDTH 16 0
BBX 15 18 1 0
BITMAP
F83E
F83E
783C
783C
783C
783C
783C
783C
783C
783C
783C
783C
783C
783C
3C78
3FF8
1FF0
07C0
ENDCHAR

STARTCHAR V
ENCODING 86
SWIDTH 570 0
DWIDTH 16 0
BBX 15 18 1 0
BITMAP
F01E
F01E
701C
783C
783C
783C
3838
3838
3C78
1C70
1C70
1EF0
1EF0
0EE0
0FE0
07C0
07C0
0380
ENDCHAR

STARTCHAR W
ENCODING 87
SWIDTH 570 0
DWIDTH 16 0
BBX 16 18 0 0
BITMAP
F00F
F00F
700E
700E
700E
718E
718E
718E
73CE
73CE
73CE
77EE
7E7E
7E7E
3C3C
381C
381C
300C
ENDCHAR

STARTCHAR X
ENCODING 88
SWIDTH 570 0
DWIDTH 16 0
BBX 14 18 1 0
BITMAP
F03C
7878
7878
3CF0
3CE0
1FE0
0FC0
0FC0
0780
0FC0
1FE0
1CE0
3CF0
3870
7878
7878
F03C
F03C
ENDCHAR

STARTCHAR Y
ENCODING 89
SWIDTH 570 0
DWIDTH 16 0
BBX 16 18 0 0
BITMAP
F00F
F81F
781E
3C3C
1C38
1E78
0FF0
07E0
07E0
03C0
03C0
03C0
03C0
03C0
03C0
03C0
0FF0
0FF0
ENDCHAR

STARTCHAR Z
ENCODING 90
SWIDTH 570 0
DWIDTH 16 0
BBX 12 18 2 0
BITMAP
FFF0
FFF0
FFF0
C1E0
83E0
03C0
0780
0F80
0F00
1E00
3E00
3C00
7800
7810
F030
FFF0
FFF0
FFF0
ENDCHAR

STARTCHAR bracketleft
ENCODING 91
SWIDTH 570 0
DWIDTH 16 0
BBX 7 20 7 -1
BITMAP
FE
FE
F0
F0
F0
F0
F0
F0
F0
F0
F0
F0
F0
F0
F0
F0
F0
F0
FE
FE
ENDCHAR

STARTCHAR backslash
ENCODING 92
SWIDTH 570 0
DWIDTH 16 0
BBX 12 20 2 -1
BITMAP
E000
E000
7000
7000
3800
3800
1C00
1C00
0E00
0E00
0600
0700
0700
0380
0380
01C0
00E0
00E0
0070
0070
ENDCHAR

STARTCHAR bracketright
ENCODING 93
SWIDTH 570 0
DWIDTH 16 0
BBX 7 20 3 -1
BITMAP
FE
FE
1E
1E
1E
1E
1E
1E
1E
1E
1E
1E
1E
1E
1E
1E
1E
1E
FE
FE
ENDCHAR

STARTCHAR asciicircum
ENCODING 94
SWIDTH 570 0
DWIDTH 16 0
BBX 12 5 2 8
BITMAP
0F00
1F80
3FC0
79E0
F0F0
ENDCHAR

STARTCHAR ldblank
ENCODING 95
SWIDTH 570 0
DWIDTH 16 0
BBX 1 1 0 0
BITMAP
00
ENDCHAR

STARTCHAR diamond
ENCODING 96
SWIDTH 570 0
DWIDTH 16 0
BBX 15 17 1 -3
BITMAP
0100
0380
07C0
0FE0
1FF0
3FF8
7FFC
FFFE
FFFE
FFFE
7FFC
3FF8
1FF0
0FE0
07C0
0380
0100
ENDCHAR

STARTCHAR checkerboard
ENCODING 97
SWIDTH 570 0
DWIDTH 16 0
BBX 16 30 0 -6
BITMAP
AAAA
5555
AAAA
5555
AAAA
5555
AAAA
5555
AAAA
5555
AAAA
5555
AAAA
5555
AAAA
5555
AAAA
5555
AAAA
5555
AAAA
5555
AAAA
5555
AAAA
5555
AAAA
5555
AAAA
5555
ENDCHAR

STARTCHAR HT
ENCODING 98
SWIDTH 570 0
DWIDTH 16 0
BBX 13 22 2 -2
BITMAP
E380
E380
E380
E380
FF80
FF80
FF80
E380
E380
E380
0000
0000
1FF8
1FF8
1FF8
0380
0380
0380
0380
0380
0380
0380
ENDCHAR

STARTCHAR FF
ENCODING 99
SWIDTH 570 0
DWIDTH 16 0
BBX 11 22 3 -2
BITMAP
FE00
FE00
E000
E000
FE00
FE00
E000
E000
E000
E000
0000
0000
0FE0
0FE0
0E00
0E00
0FC0
0FC0
0E00
0E00
0E00
0E00
ENDCHAR

STARTCHAR CR
ENCODING 100
SWIDTH 570 0
DWIDTH 16 0
BBX 13 22 2 -2
BITMAP
1F80
7F80
F000
E000
E000
E000
E000
F000
7F80
1F80
0000
0000
0FE0
0FF0
0E38
0E38
0E30
0FE0
0FE0
0E70
0E38
0E18
ENDCHAR

STARTCHAR LF
ENCODING 101
SWIDTH 570 0
DWIDTH 16 0
BBX 13 22 2 -2
BITMAP
E000
E000
E000
E000
E000
E000
E000
FF00
FF00
FF00
0000
0000
07F8
07F8
07F8
0700
0700
07F0
07F0
0700
0700
0700
ENDCHAR

STARTCHAR degree
ENCODING 102
SWIDTH 570 0
DWIDTH 16 0
BBX 8 7 4 13
BITMAP
3C
7E
E7
E7
E7
7E
3C
ENDCHAR

STARTCHAR plusminus
ENCODING 103
SWIDTH 570 0
DWIDTH 16 0
BBX 13 19 2 -1
BITMAP
0700
0700
0700
0700
0700
FFF8
FFF8
FFF8
0700
0700
0700
0700
0700
0000
0000
0000
FFF0
FFF0
FFF0
ENDCHAR

STARTCHAR NL
ENCODING 104
SWIDTH 570 0
DWIDTH 16 0
BBX 13 21 1 -2
BITMAP
F0E0
F8E0
FCE0
ECE0
EEE0
E7E0
E3E0
E1E0
E0E0
0000
0000
0700
0700
0700
0700
0700
0700
0700
0700
07F8
07F8
ENDCHAR

STARTCHAR VT
ENCODING 105
SWIDTH 570 0
DWIDTH 16 0
BBX 13 21 2 -2
BITMAP
E0E0
E0E0
71C0
71C0
3B80
3B80
1F00
0E00
0400
0000
0000
3FF8
3FF8
3FF8
0380
0380
0380
0380
0380
0380
0380
ENDCHAR

STARTCHAR ldcornsqlr
ENCODING 106
SWIDTH 570 0
DWIDTH 16 0
BBX 9 16 0 8
BITMAP
0380
0380
0380
0380
0380
0380
0380
0380
0380
0380
0380
0380
0380
FF80
FF80
FF80
ENDCHAR

STARTCHAR ldcornsqur
ENCODING 107
SWIDTH 570 0
DWIDTH 16 0
BBX 9 17 0 -6
BITMAP
FF80
FF80
FF80
0380
0380
0380
0380
0380
0380
0380
0380
0380
0380
0380
0380
0380
0380
ENDCHAR

STARTCHAR ldcornsqul
ENCODING 108
SWIDTH 570 0
DWIDTH 16 0
BBX 10 17 6 -6
BITMAP
FFC0
FFC0
FFC0
E000
E000
E000
E000
E000
E000
E000
E000
E000
E000
E000
E000
E000
E000
ENDCHAR

STARTCHAR ldcornsqll
ENCODING 109
SWIDTH 570 0
DWIDTH 16 0
BBX 10 16 6 8
BITMAP
E000
E000
E000
E000
E000
E000
E000
E000
E000
E000
E000
E000
E000
FFC0
FFC0
FFC0
ENDCHAR

STARTCHAR ldcross
ENCODING 110
SWIDTH 570 0
DWIDTH 16 0
BBX 16 30 0 -6
BITMAP
0380
0380
0380
0380
0380
0380
0380
0380
0380
0380
0380
0380
0380
FFFF
FFFF
FFFF
0380
0380
0380
0380
0380
0380
0380
0380
0380
0380
0380
0380
0380
0380
ENDCHAR

STARTCHAR ldscan1
ENCODING 111
SWIDTH 570 0
DWIDTH 16 0
BBX 16 3 0 21
BITMAP
FFFF
FFFF
FFFF
ENDCHAR

STARTCHAR ldscan3
ENCODING 112
SWIDTH 570 0
DWIDTH 16 0
BBX 16 3 0 15
BITMAP
FFFF
FFFF
FFFF
ENDCHAR

STARTCHAR ldhorizontal
ENCODING 113
SWIDTH 570 0
DWIDTH 16 0
BBX 16 3 0 8
BITMAP
FFFF
FFFF
FFFF
ENDCHAR

STARTCHAR ldscan7
ENCODING 114
SWIDTH 570 0
DWIDTH 16 0
BBX 16 3 0 0
BITMAP
FFFF
FFFF
FFFF
ENDCHAR

STARTCHAR ldscan9
ENCODING 115
SWIDTH 570 0
DWIDTH 16 0
BBX 16 3 0 -6
BITMAP
FFFF
FFFF
FFFF
ENDCHAR

STARTCHAR ldteelft
ENCODING 116
SWIDTH 570 0
DWIDTH 16 0
BBX 10 30 6 -6
BITMAP
E000
E000
E000
E000
E000
E000
E000
E000
E000
E000
E000
E000
E000
FFC0
FFC0
FFC0
E000
E000
E000
E000
E000
E000
E000
E000
E000
E000
E000
E000
E000
E000
ENDCHAR

STARTCHAR ldteert
ENCODING 117
SWIDTH 570 0
DWIDTH 16 0
BBX 9 30 0 -6
BITMAP
0380
0380
0380
0380
0380
0380
0380
0380
0380
0380
0380
0380
0380
FF80
FF80
FF80
0380
0380
0380
0380
0380
0380
0380
0380
0380
0380
0380
0380
0380
0380
ENDCHAR

STARTCHAR ldteebt
ENCODING 118
SWIDTH 570 0
DWIDTH 16 0
BBX 16 16 0 8
BITMAP
0380
0380
0380
0380
0380
0380
0380
0380
0380
0380
0380
0380
0380
FFFF
FFFF
FFFF
ENDCHAR

STARTCHAR ldteetp
ENCODING 119
SWIDTH 570 0
DWIDTH 16 0
BBX 16 17 0 -6
BITMAP
FFFF
FFFF
FFFF
0380
0380
0380
0380
0380
0380
0380
0380
0380
0380
0380
0380
0380
0380
ENDCHAR

STARTCHAR ldvertical
ENCODING 120
SWIDTH 570 0
DWIDTH 16 0
BBX 3 30 6 -6
BITMAP
E0
E0
E0
E0
E0
E0
E0
E0
E0
E0
E0
E0
E0
E0
E0
E0
E0
E0
E0
E0
E0
E0
E0
E0
E0
E0
E0
E0
E0
E0
ENDCHAR

STARTCHAR lessequal
ENCODING 121
SWIDTH 570 0
DWIDTH 16 0
BBX 12 17 2 0
BITMAP
01E0
03C0
0780
0F00
1E00
3C00
7800
3C00
1E00
0F00
0780
03C0
01E0
0000
FFF0
FFF0
FFF0
ENDCHAR

STARTCHAR greaterequal
ENCODING 122
SWIDTH 570 0
DWIDTH 16 0
BBX 12 18 2 0
BITMAP
7800
3C00
1E00
0F00
0780
03C0
01E0
03C0
0780
0F00
1E00
3C00
7800
0000
0000
FFF0
FFF0
FFF0
ENDCHAR

STARTCHAR pi
ENCODING 123
SWIDTH 570 0
DWIDTH 16 0
BBX 14 13 1 0
BITMAP
FFFC
FFFC
3CF0
3CF0
3CF0
3CF0
3CF0
3CF0
3CF0
3CF0
3CF0
F8F0
F0F0
ENDCHAR

STARTCHAR notequal
ENCODING 124
SWIDTH 570 0
DWIDTH 16 0
BBX 14 15 1 2
BITMAP
001C
0038
0070
FFFC
FFFC
FFFC
01C0
0380
0700
FFFC
FFFC
FFFC
3800
7000
E000
ENDCHAR

STARTCHAR sterling
ENCODING 125
SWIDTH 570 0
DWIDTH 16 0
BBX 14 18 1 0
BITMAP
07E0
0FF0
1F38
1E38
1E00
1E00
1E00
1E00
7FE0
7FE0
1E00
1E00
1E00
1E04
1F0C
3FFC
7FFC
F3F8
ENDCHAR

STARTCHAR periodcentered
ENCODING 126
SWIDTH 570 0
DWIDTH 16 0
BBX 4 4 6 8
BITMAP
F0
F0
F0
F0
ENDCHAR

STARTCHAR Error
ENCODING 159
SWIDTH 570 0
DWIDTH 16 0
BBX 15 29 1 -5
BITMAP
0FF0
3FFC
7FFC
7EFE
FC7E
FC7E
FC7E
FC00
FC00
7E00
7E00
3F00
1F80
1FC0
0FC0
07E0
07E0
03F0
03F0
03F0
03F0
0000
0000
0000
03F0
07F8
07F8
07F8
03F0
ENDCHAR

STARTCHAR ldradicalbt
ENCODING 161
SWIDTH 570 0
DWIDTH 16 0
BBX 9 24 1 0
BITMAP
0780
0780
0780
0780
0780
0780
0780
0780
0780
0780
0780
0780
0780
0780
F780
FF80
FF80
FF80
FF80
1F80
0F80
0780
0380
0180
ENDCHAR

STARTCHAR ldradicaltp
ENCODING 162
SWIDTH 570 0
DWIDTH 16 0
BBX 10 20 6 -6
BITMAP
FFC0
FFC0
FFC0
FFC0
F000
F000
F000
F000
F000
F000
F000
F000
F000
F000
F000
F000
F000
F000
F000
F000
ENDCHAR

STARTCHAR ldhorizontal
ENCODING 163
SWIDTH 570 0
DWIDTH 16 0
BBX 16 3 0 11
BITMAP
FFFF
FFFF
FFFF
ENDCHAR

STARTCHAR ldintegraltp
ENCODING 164
SWIDTH 570 0
DWIDTH 16 0
BBX 10 24 6 -6
BITMAP
1F00
3F80
7FC0
7FC0
F0C0
F0C0
F000
F000
F000
F000
F000
F000
F000
F000
F000
F000
F000
F000
F000
F000
F000
F000
F000
F000
ENDCHAR

STARTCHAR ldintegralbt
ENCODING 165
SWIDTH 570 0
DWIDTH 16 0
BBX 10 22 0 2
BITMAP
03C0
03C0
03C0
03C0
03C0
03C0
03C0
03C0
03C0
03C0
03C0
03C0
03C0
03C0
03C0
03C0
E3C0
E3C0
FFC0
FF80
7F80
3F00
ENDCHAR

STARTCHAR ldvertical
ENCODING 166
SWIDTH 570 0
DWIDTH 16 0
BBX 4 30 6 -6
BITMAP
F0
F0
F0
F0
F0
F0
F0
F0
F0
F0
F0
F0
F0
F0
F0
F0
F0
F0
F0
F0
F0
F0
F0
F0
F0
F0
F0
F0
F0
F0
ENDCHAR

STARTCHAR ldbracketlfttp
ENCODING 167
SWIDTH 570 0
DWIDTH 16 0
BBX 10 28 6 -6
BITMAP
FFC0
FFC0
FFC0
FFC0
F000
F000
F000
F000
F000
F000
F000
F000
F000
F000
F000
F000
F000
F000
F000
F000
F000
F000
F000
F000
F000
F000
F000
F000
ENDCHAR

STARTCHAR ldbracketlftbt
ENCODING 168
SWIDTH 570 0
DWIDTH 16 0
BBX 10 28 6 -4
BITMAP
F000
F000
F000
F000
F000
F000
F000
F000
F000
F000
F000
F000
F000
F000
F000
F000
F000
F000
F000
F000
F000
F000
F000
F000
FFC0
FFC0
FFC0
FFC0
ENDCHAR

STARTCHAR ldbracketrttp
ENCODING 169
SWIDTH 570 0
DWIDTH 16 0
BBX 8 28 2 -6
BITMAP
FF
FF
FF
FF
0F
0F
0F
0F
0F
0F
0F
0F
0F
0F
0F
0F
0F
0F
0F
0F
0F
0F
0F
0F
0F
0F
0F
0F
ENDCHAR

STARTCHAR ldbracketrtbt
ENCODING 170
SWIDTH 570 0
DWIDTH 16 0
BBX 8 28 2 -4
BITMAP
0F
0F
0F
0F
0F
0F
0F
0F
0F
0F
0F
0F
0F
0F
0F
0F
0F
0F
0F
0F
0F
0F
0F
0F
FF
FF
FF
FF
ENDCHAR

STARTCHAR ldbracelfttp
ENCODING 171
SWIDTH 570 0
DWIDTH 16 0
BBX 9 28 6 -6
BITMAP
3F80
7F80
FF80
FF80
F800
F000
F000
F000
F000
F000
F000
F000
F000
F000
F000
F000
F000
F000
F000
F000
F000
F000
F000
F000
F000
F000
F000
F000
ENDCHAR

STARTCHAR ldbracelftbt
ENCODING 172
SWIDTH 570 0
DWIDTH 16 0
BBX 9 28 6 -4
BITMAP
F000
F000
F000
F000
F000
F000
F000
F000
F000
F000
F000
F000
F000
F000
F000
F000
F000
F000
F000
F000
F000
F000
F000
F800
FF80
FF80
7F80
3F80
ENDCHAR

STARTCHAR ldbracerttp
ENCODING 173
SWIDTH 570 0
DWIDTH 16 0
BBX 9 28 1 -6
BITMAP
FE00
FF00
FF80
FF80
0F80
0780
0780
0780
0780
0780
0780
0780
0780
0780
0780
0780
0780
0780
0780
0780
0780
0780
0780
0780
0780
0780
0780
0780
ENDCHAR

STARTCHAR ldbracertbt
ENCODING 174
SWIDTH 570 0
DWIDTH 16 0
BBX 9 28 1 -4
BITMAP
0780
0780
0780
0780
0780
0780
0780
0780
0780
0780
0780
0780
0780
0780
0780
0780
0780
0780
0780
0780
0780
0780
0780
0F80
FF80
FF80
FF00
FE00
ENDCHAR

STARTCHAR ldbracelftmid
ENCODING 175
SWIDTH 570 0
DWIDTH 16 0
BBX 8 30 2 -6
BITMAP
0F
0F
0F
0F
0F
0F
0F
0F
0F
0F
1F
3E
7C
F8
F8
7C
3E
1F
0F
0F
0F
0F
0F
0F
0F
0F
0F
0F
0F
0F
ENDCHAR

STARTCHAR ldbracertmid
ENCODING 176
SWIDTH 570 0
DWIDTH 16 0
BBX 8 30 6 -6
BITMAP
F0
F0
F0
F0
F0
F0
F0
F0
F0
F0
F8
7C
3E
1F
1F
3E
7C
F8
F0
F0
F0
F0
F0
F0
F0
F0
F0
F0
F0
F0
ENDCHAR

STARTCHAR ldsigmalfttp
ENCODING 177
SWIDTH 570 0
DWIDTH 16 0
BBX 11 20 5 -6
BITMAP
FFE0
FFE0
7FE0
7800
3800
3C00
3C00
1E00
1E00
0F00
0F00
0700
0780
0780
03C0
03C0
01E0
01E0
00E0
00E0
ENDCHAR

STARTCHAR ldsigmalftbt
ENCODING 178
SWIDTH 570 0
DWIDTH 16 0
BBX 10 13 6 11
BITMAP
01C0
03C0
07C0
0780
0F00
1F00
1E00
3E00
7C00
7800
FFC0
FFC0
FFC0
ENDCHAR

STARTCHAR ldbackslash
ENCODING 179
SWIDTH 570 0
DWIDTH 16 0
BBX 16 30 0 -6
BITMAP
E000
E000
F000
7000
7800
7800
3C00
3C00
1E00
1E00
0E00
0F00
0780
0780
03C0
03C0
01E0
01E0
00F0
00F0
0070
0078
0038
003C
001E
001E
000E
000F
0007
0007
ENDCHAR

STARTCHAR ldslash
ENCODING 180
SWIDTH 570 0
DWIDTH 16 0
BBX 16 30 0 -6
BITMAP
0007
0007
000F
000F
001E
001E
003C
003C
0078
0078
0070
00F0
01E0
01E0
03C0
03C0
0780
0780
0F00
0F00
1E00
1E00
3C00
3800
7800
F800
F000
E000
E000
C000
ENDCHAR

STARTCHAR ldsigmarttp
ENCODING 181
SWIDTH 570 0
DWIDTH 16 0
BBX 14 7 0 7
BITMAP
FFFC
FFFC
FFFC
000C
000C
000C
000C
ENDCHAR

STARTCHAR ldsigmartbt
ENCODING 182
SWIDTH 570 0
DWIDTH 16 0
BBX 14 7 0 11
BITMAP
000C
000C
000C
000C
FFFC
FFFC
FFFC
ENDCHAR

STARTCHAR ldsigmamid
ENCODING 183
SWIDTH 570 0
DWIDTH 16 0
BBX 10 30 0 -6
BITMAP
C000
E000
E000
F000
F000
7800
3C00
3C00
1E00
1E00
0F00
0F00
0780
0380
03C0
03C0
0780
0780
0F00
0F00
0E00
1E00
3C00
3C00
7800
7000
F000
E000
E000
C000
ENDCHAR

STARTCHAR lessequal
ENCODING 188
SWIDTH 570 0
DWIDTH 16 0
BBX 12 17 2 0
BITMAP
01E0
03C0
0780
0F00
1E00
3C00
7800
3C00
1E00
0F00
0780
03C0
01E0
0000
FFF0
FFF0
FFF0
ENDCHAR

STARTCHAR notequal
ENCODING 189
SWIDTH 570 0
DWIDTH 16 0
BBX 14 15 1 2
BITMAP
001C
0038
0070
FFFC
FFFC
FFFC
01C0
0380
0700
FFFC
FFFC
FFFC
3800
7000
E000
ENDCHAR

STARTCHAR greaterequal
ENCODING 190
SWIDTH 570 0
DWIDTH 16 0
BBX 12 17 2 0
BITMAP
7800
3C00
1E00
0F00
0780
03C0
01E0
03C0
0780
0F00
1E00
3C00
7800
0000
FFF0
FFF0
FFF0
ENDCHAR

STARTCHAR integral
ENCODING 191
SWIDTH 570 0
DWIDTH 16 0
BBX 12 24 2 -2
BITMAP
03C0
07E0
0FB0
0F30
0F00
0F00
0F00
0F00
0F00
0F00
0F00
0F00
0F00
0F00
0F00
0F00
0F00
0F00
0F00
0F00
CF00
DF00
7E00
3C00
ENDCHAR

STARTCHAR therefore
ENCODING 192
SWIDTH 570 0
DWIDTH 16 0
BBX 12 14 2 0
BITMAP
0F00
0F00
0F00
0F00
0000
0000
0000
0000
0000
0000
F0F0
F0F0
F0F0
F0F0
ENDCHAR

STARTCHAR proportional
ENCODING 193
SWIDTH 570 0
DWIDTH 16 0
BBX 13 12 2 0
BITMAP
3830
7C78
7EF8
FFE0
EFC0
C780
C780
EFC0
FFE0
7EF8
7C78
3830
ENDCHAR

STARTCHAR infinity
ENCODING 194
SWIDTH 570 0
DWIDTH 16 0
BBX 12 12 2 0
BITMAP
39C0
7FE0
7FE0
FFF0
EF70
C630
C630
EF70
FFF0
7FE0
7FE0
39C0
ENDCHAR

STARTCHAR divide
ENCODING 195
SWIDTH 570 0
DWIDTH 16 0
BBX 13 15 2 1
BITMAP
0700
0700
0700
0700
0000
0000
FFF8
FFF8
FFF8
0000
0000
0700
0700
0700
0700
ENDCHAR

STARTCHAR Delta
ENCODING 196
SWIDTH 570 0
DWIDTH 16 0
BBX 14 13 1 1
BITMAP
0300
0780
0FC0
1FE0
3CF0
7878
F03C
E01C
E01C
E01C
FFFC
FFFC
FFFC
ENDCHAR

STARTCHAR gradient
ENCODING 197
SWIDTH 570 0
DWIDTH 16 0
BBX 14 13 1 1
BITMAP
FFFC
FFFC
FFFC
E01C
E01C
E01C
F03C
7878
3CF0
1FE0
0FC0
0780
0300
ENDCHAR

STARTCHAR Phi
ENCODING 198
SWIDTH 570 0
DWIDTH 16 0
BBX 14 18 1 0
BITMAP
0FC0
0FC0
0FC0
0300
1FE0
7FF8
7338
F33C
F33C
F33C
F33C
7338
7FF8
1FE0
0300
0FC0
0FC0
0FC0
ENDCHAR

STARTCHAR Gamma
ENCODING 199
SWIDTH 570 0
DWIDTH 16 0
BBX 12 18 2 0
BITMAP
FFF0
FFF0
FFF0
3C30
3C30
3C30
3C00
3C00
3C00
3C00
3C00
3C00
3C00
3C00
3C00
FF00
FF00
FF00
ENDCHAR

STARTCHAR similar
ENCODING 200
SWIDTH 570 0
DWIDTH 16 0
BBX 12 7 2 5
BITMAP
3830
7C30
FF70
FFF0
CFF0
C7E0
C1C0
ENDCHAR

STARTCHAR approxequal
ENCODING 201
SWIDTH 570 0
DWIDTH 16 0
BBX 12 13 2 0
BITMAP
3830
7C30
FF70
FFF0
CFF0
C7E0
C1C0
0000
0000
0000
FFF0
FFF0
FFF0
ENDCHAR

STARTCHAR Theta
ENCODING 202
SWIDTH 570 0
DWIDTH 16 0
BBX 12 18 2 0
BITMAP
0F00
1F80
3FC0
79E0
70E0
E070
E070
E970
EF70
EF70
E970
E070
E070
70E0
79E0
3FC0
1F80
0F00
ENDCHAR

STARTCHAR multiply
ENCODING 203
SWIDTH 570 0
DWIDTH 16 0
BBX 11 12 2 2
BITMAP
C060
E0E0
F1E0
7BC0
3F80
1F00
1F00
3F80
7BC0
F1E0
E0E0
C060
ENDCHAR

STARTCHAR Lambda
ENCODING 204
SWIDTH 570 0
DWIDTH 16 0
BBX 14 18 1 0
BITMAP
0300
0300
0780
0780
0FC0
0FC0
1CE0
1CE0
1CE0
3CF0
3870
3870
3870
7878
7038
7038
F03C
F03C
ENDCHAR

STARTCHAR arrowdblboth
ENCODING 205
SWIDTH 570 0
DWIDTH 16 0
BBX 16 18 0 0
BITMAP
0C30
0C30
1C38
1818
3FFC
3FFC
7FFE
700E
F00F
F00F
700E
7FFE
3FFC
3FFC
1818
1818
0C30
0C30
ENDCHAR

STARTCHAR arrowdblright
ENCODING 206
SWIDTH 570 0
DWIDTH 16 0
BBX 13 18 1 0
BITMAP
0300
0380
0180
00C0
FFE0
FFE0
FFF0
0070
0078
0078
0070
FFF0
FFE0
FFE0
00C0
0180
0380
0300
ENDCHAR

STARTCHAR equivalence
ENCODING 207
SWIDTH 570 0
DWIDTH 16 0
BBX 12 15 2 2
BITMAP
FFF0
FFF0
FFF0
0000
0000
0000
FFF0
FFF0
FFF0
0000
0000
0000
FFF0
FFF0
FFF0
ENDCHAR

STARTCHAR Pi
ENCODING 208
SWIDTH 570 0
DWIDTH 16 0
BBX 14 18 1 0
BITMAP
FFFC
FFFC
3CF0
3CF0
3CF0
3CF0
3CF0
3CF0
3CF0
3CF0
3CF0
3CF0
3CF0
3CF0
3CF0
3CF0
3CF0
3CF0
ENDCHAR

STARTCHAR Psi
ENCODING 209
SWIDTH 570 0
DWIDTH 16 0
BBX 14 18 1 0
BITMAP
F33C
F33C
F33C
F33C
3330
3330
3330
3330
3FF0
3FF0
1FE0
0FC0
0300
0300
0FC0
0FC0
0FC0
0FC0
ENDCHAR

STARTCHAR Sigma
ENCODING 211
SWIDTH 570 0
DWIDTH 16 0
BBX 12 18 2 0
BITMAP
FFF0
FFF0
FFF0
FFF0
7830
3C30
1E00
0F00
0780
0F00
1E00
3C30
7830
F030
FFF0
FFF0
FFF0
FFF0
ENDCHAR

STARTCHAR radical
ENCODING 214
SWIDTH 570 0
DWIDTH 16 0
BBX 16 12 0 0
BITMAP
000F
001F
003F
007F
60F8
F0F0
F9E0
7FE0
3FC0
1F80
0F00
0F00
ENDCHAR

STARTCHAR Omega
ENCODING 215
SWIDTH 570 0
DWIDTH 16 0
BBX 14 18 1 0
BITMAP
0780
1FE0
3FF0
7FF8
7878
F03C
F03C
F03C
F03C
F03C
F03C
7878
7CF8
3CF0
3CF0
FCFC
FCFC
FCFC
ENDCHAR

STARTCHAR Xi
ENCODING 216
SWIDTH 570 0
DWIDTH 16 0
BBX 12 17 2 0
BITMAP
FFF0
FFF0
FFF0
FFF0
0000
0000
0000
3FC0
3FC0
3FC0
0000
0000
0000
FFF0
FFF0
FFF0
FFF0
ENDCHAR

STARTCHAR Upsilon1
ENCODING 217
SWIDTH 570 0
DWIDTH 16 0
BBX 16 18 0 0
BITMAP
F00F
F81F
781E
3C3C
1C38
1E78
0FF0
07E0
07E0
03C0
03C0
03C0
03C0
03C0
03C0
03C0
0FF0
0FF0
ENDCHAR

STARTCHAR propersubset
ENCODING 218
SWIDTH 570 0
DWIDTH 16 0
BBX 12 14 2 0
BITMAP
1FF0
7FF0
7FF0
FFF0
F000
F000
F000
F000
F000
F000
FFF0
7FF0
7FF0
1FF0
ENDCHAR

STARTCHAR propersuperset
ENCODING 219
SWIDTH 570 0
DWIDTH 16 0
BBX 12 14 2 0
BITMAP
FF80
FFE0
FFE0
FFF0
00F0
00F0
00F0
00F0
00F0
00F0
FFF0
FFE0
FFE0
FF80
ENDCHAR

STARTCHAR intersection
ENCODING 220
SWIDTH 570 0
DWIDTH 16 0
BBX 12 14 2 0
BITMAP
1F80
7FE0
7FE0
FFF0
F0F0
F0F0
F0F0
F0F0
F0F0
F0F0
F0F0
F0F0
F0F0
F0F0
ENDCHAR

STARTCHAR union
ENCODING 221
SWIDTH 570 0
DWIDTH 16 0
BBX 12 14 2 0
BITMAP
F0F0
F0F0
F0F0
F0F0
F0F0
F0F0
F0F0
F0F0
F0F0
F0F0
FFF0
7FE0
7FE0
1F80
ENDCHAR

STARTCHAR logicaland
ENCODING 222
SWIDTH 570 0
DWIDTH 16 0
BBX 14 12 1 1
BITMAP
0300
0780
0FC0
1FE0
3CF0
3CF0
7CF8
7878
F87C
F03C
F03C
F03C
ENDCHAR

STARTCHAR logicalor
ENCODING 223
SWIDTH 570 0
DWIDTH 16 0
BBX 14 12 1 0
BITMAP
F03C
F03C
F87C
7878
7878
3CF0
3CF0
1CE0
1FE0
0FC0
0780
0300
ENDCHAR

STARTCHAR logicalnot
ENCODING 224
SWIDTH 570 0
DWIDTH 16 0
BBX 11 6 3 7
BITMAP
FFE0
FFE0
FFE0
00E0
00E0
00E0
ENDCHAR

STARTCHAR alpha
ENCODING 225
SWIDTH 570 0
DWIDTH 16 0
BBX 14 13 1 0
BITMAP
0F0C
3F9C
3FFC
79FC
70F8
F0F0
F0F0
F0F0
F0F0
79F8
7FFC
3F9C
1F0C
ENDCHAR

STARTCHAR beta
ENCODING 226
SWIDTH 570 0
DWIDTH 16 0
BBX 13 18 2 0
BITMAP
01F0
07F8
07F8
0F38
0E38
0E70
1C70
1FE0
1FC0
3FE0
3FF0
38F0
7870
7070
78F0
FFE0
FFE0
E7C0
ENDCHAR

STARTCHAR chi
ENCODING 227
SWIDTH 570 0
DWIDTH 16 0
BBX 12 17 2 -4
BITMAP
F070
F070
7870
78F0
3CE0
3EE0
0FC0
0F80
0780
07C0
0FC0
1FC0
3DE0
78E0
70E0
F0E0
E0E0
ENDCHAR

STARTCHAR delta
ENCODING 228
SWIDTH 570 0
DWIDTH 16 0
BBX 10 18 3 0
BITMAP
1F00
3F80
3FC0
71C0
7000
7800
3E00
3F80
7F80
73C0
E1C0
E1C0
E1C0
E1C0
F3C0
7F80
7F80
1E00
ENDCHAR

STARTCHAR epsilon
ENCODING 229
SWIDTH 570 0
DWIDTH 16 0
BBX 10 13 3 0
BITMAP
3FC0
7FC0
7FC0
E000
E000
FF00
FF00
FF00
E000
E000
7FC0
7FC0
3FC0
ENDCHAR

STARTCHAR phi
ENCODING 230
SWIDTH 570 0
DWIDTH 16 0
BBX 12 17 2 -2
BITMAP
00C0
00C0
1FC0
7FE0
7FE0
F1F0
E370
E370
E670
E670
EC70
F8F0
7FE0
7FE0
3F80
3000
3000
ENDCHAR

STARTCHAR gamma
ENCODING 231
SWIDTH 570 0
DWIDTH 16 0
BBX 13 18 1 -5
BITMAP
3878
7C78
FC78
DC78
1E78
0E70
0E70
0EF0
07F0
07E0
07C0
07C0
0F80
0F00
1E00
3C00
3C00
1800
ENDCHAR

STARTCHAR eta
ENCODING 232
SWIDTH 570 0
DWIDTH 16 0
BBX 13 16 1 -4
BITMAP
E1E0
F7F0
3FF8
3EF8
3C78
3C78
3C78
3C78
3C78
3C78
3C78
3C78
0078
0078
0078
0078
ENDCHAR

STARTCHAR iota
ENCODING 233
SWIDTH 570 0
DWIDTH 16 0
BBX 10 13 3 0
BITMAP
F000
F000
F000
F000
F000
F000
F000
F1C0
F1C0
F1C0
7FC0
7F80
3F00
ENDCHAR

STARTCHAR theta
ENCODING 234
SWIDTH 570 0
DWIDTH 16 0
BBX 10 18 3 0
BITMAP
3F00
7F80
7F80
F3C0
E1C0
E1C0
E1C0
E1C0
FFC0
FFC0
E1C0
E1C0
E1C0
E1C0
F3C0
7F80
7F80
3F00
ENDCHAR

STARTCHAR kappa
ENCODING 235
SWIDTH 570 0
DWIDTH 16 0
BBX 13 13 1 0
BITMAP
F838
FC78
3CF8
3CF0
3DE0
3FC0
3FC0
3FE0
3DE0
3CF0
3CF8
3C78
3C78
ENDCHAR

STARTCHAR lambda
ENCODING 236
SWIDTH 570 0
DWIDTH 16 0
BBX 13 16 2 0
BITMAP
3800
7C00
7E00
6F00
4700
0780
0380
03C0
07C0
0FE0
1FE0
3EF0
7CF0
F870
F078
E078
ENDCHAR

STARTCHAR nu
ENCODING 238
SWIDTH 570 0
DWIDTH 16 0
BBX 14 13 1 0
BITMAP
F83C
F83C
3C3C
3C3C
3C3C
1C3C
1C3C
1E78
1E78
0EF0
0FE0
0FC0
0F80
ENDCHAR

STARTCHAR partialdiff
ENCODING 239
SWIDTH 570 0
DWIDTH 16 0
BBX 11 18 2 0
BITMAP
E000
F800
FE00
3F00
0F80
0F80
1FC0
3FC0
39E0
70E0
70E0
70E0
70E0
70E0
79E0
3FC0
3FC0
0F00
ENDCHAR

STARTCHAR pi
ENCODING 240
SWIDTH 570 0
DWIDTH 16 0
BBX 14 13 1 0
BITMAP
FFFC
FFFC
3CF0
3CF0
3CF0
3CF0
3CF0
3CF0
3CF0
3CF0
3CF0
F8F0
F0F0
ENDCHAR

STARTCHAR psi
ENCODING 241
SWIDTH 570 0
DWIDTH 16 0
BBX 13 19 2 -4
BITMAP
0700
0700
E738
E738
E738
E738
E738
E738
E738
E738
E738
F778
7FF0
7FF0
1FC0
0700
0700
0700
0700
ENDCHAR

STARTCHAR rho
ENCODING 242
SWIDTH 570 0
DWIDTH 16 0
BBX 11 16 3 -3
BITMAP
3E00
7F80
7FC0
F3C0
F1E0
F1E0
F1E0
F1E0
F1E0
F3C0
FFC0
FF80
FC00
F000
F000
F000
ENDCHAR

STARTCHAR sigma
ENCODING 243
SWIDTH 570 0
DWIDTH 16 0
BBX 12 13 3 0
BITMAP
0FF0
3FF0
7F00
7F80
F380
E1C0
E1C0
E1C0
E1C0
F3C0
7F80
7F80
3F00
ENDCHAR

STARTCHAR tau
ENCODING 244
SWIDTH 570 0
DWIDTH 16 0
BBX 12 15 2 0
BITMAP
0030
0030
3FF0
7FF0
FFE0
CF00
CF00
0F00
0F00
0F00
0F00
0F00
0F00
0FC0
07C0
ENDCHAR

STARTCHAR florin
ENCODING 246
SWIDTH 570 0
DWIDTH 16 0
BBX 14 22 1 -2
BITMAP
01F0
03F8
07FC
071C
0F0C
0F0C
0F00
3FE0
3FE0
0F00
0F00
0F00
0F00
0F00
0F00
0F00
CF00
CF00
EF00
FE00
7E00
3C00
ENDCHAR

STARTCHAR omega
ENCODING 247
SWIDTH 570 0
DWIDTH 16 0
BBX 14 13 1 0
BITMAP
3030
7038
7038
F33C
E31C
E31C
E31C
E31C
E31C
F7BC
7FF8
7FF8
3CF0
ENDCHAR

STARTCHAR xi
ENCODING 248
SWIDTH 570 0
DWIDTH 16 0
BBX 12 26 2 -4
BITMAP
3C00
7C00
6000
7800
3FE0
1FF0
3FF0
3870
7000
7000
7000
7800
3F80
1F80
3F80
7800
F000
F000
F800
FFE0
7FF0
3FF0
00F0
00E0
07C0
0780
ENDCHAR

STARTCHAR upsilon
ENCODING 249
SWIDTH 570 0
DWIDTH 16 0
BBX 13 13 2 0
BITMAP
71F0
F9F8
B878
3838
3C38
3C38
3C78
1C78
1CF0
1FE0
1FE0
1FC0
0F00
ENDCHAR

STARTCHAR zeta
ENCODING 250
SWIDTH 570 0
DWIDTH 16 0
BBX 11 23 2 -4
BITMAP
0C00
1C00
3000
3FE0
1FE0
07E0
0FE0
1E00
3C00
7800
7000
F000
E000
E000
F000
FFC0
FFE0
7FE0
3FE0
01C0
0380
0F00
0E00
ENDCHAR

STARTCHAR arrowleft
ENCODING 251
SWIDTH 570 0
DWIDTH 16 0
BBX 15 13 1 3
BITMAP
0200
0600
0E00
1E00
3E00
7FFE
FFFE
7FFE
3E00
1E00
0E00
0600
0200
ENDCHAR

STARTCHAR arrowup
ENCODING 252
SWIDTH 570 0
DWIDTH 16 0
BBX 14 15 1 2
BITMAP
0300
0780
0FC0
1FE0
3FF0
7FF8
FFFC
0780
0780
0780
0780
0780
0780
0780
0780
ENDCHAR

STARTCHAR arrowright
ENCODING 253
SWIDTH 570 0
DWIDTH 16 0
BBX 15 13 0 3
BITMAP
0080
00C0
00E0
00F0
00F8
FFFC
FFFE
FFFC
00F8
00F0
00E0
00C0
0080
ENDCHAR

STARTCHAR arrowdown
ENCODING 254
SWIDTH 570 0
DWIDTH 16 0
BBX 14 15 1 1
BITMAP
0780
0780
0780
0780
0780
0780
0780
0780
FFFC
7FF8
3FF0
1FE0
0FC0
0780
0300
ENDCHAR
ENDFONT
